# xmcd
# 
# Track frame offsets:
#     150
#     10177
#     20145
#     37017
#     45997
#     59762
#     73455
#     86465
#     98695
#     110862
#     124212
#     135935
#     148875
#     159950
#     172792
#     183502
#     196327
#     207587
# 
# Disc length: 2931
# 
# Revision: 1
# Processed by: cddbd v1.5.2PL0 Copyright (c) Steve Scherf et al.
# Submitted via: fre:ac v1.0.17
# 
DISCID=070b7112
DTITLE=Patsy Cline - Heartaches
DYEAR=1997
DGENRE=country
TTITLE0=Heartaches
TTITLE1=Have You Ever Been Lonely
TTITLE2=Faded Love
TTITLE3=Anytime
TTITLE4=So Wrong
TTITLE5=She's got you
TTITLE6=Imagine That
TTITLE7=Always
TTITLE8=He calle me baby
TTITLE9=I cant help it
TTITLE10=When I get thru with you
TTITLE11=Someday
TTITLE12=Leavin' on your mind
TTITLE13=When you need a laugh
TTITLE14=Your cheatin' heart
TTITLE15=I Fall to pieces
TTITLE16=A poor man's roses
TTITLE17=Crazy
EXTD=
EXTT0=
EXTT1=
EXTT2=
EXTT3=
EXTT4=
EXTT5=
EXTT6=
EXTT7=
EXTT8=
EXTT9=
EXTT10=
EXTT11=
EXTT12=
EXTT13=
EXTT14=
EXTT15=
EXTT16=
EXTT17=
PLAYORDER=
